<svg width="96" height="96" viewBox="0 0 96 96" fill="none" xmlns="http://www.w3.org/2000/svg">
  <rect width="96" height="96" rx="22" fill="#0B0C10"/>
  <path d="M48 75C48 75 68 58 68 38C68 27 59 18 48 18C37 18 28 27 28 38C28 58 48 75 48 75Z" fill="#C9A96E" fill-opacity="0.18"/>
  <path d="M48 70C48 70 63 55 63 38C63 30 56 23 48 23C40 23 33 30 33 38C33 55 48 70 48 70Z" stroke="#C9A96E" stroke-width="4" stroke-linecap="round" stroke-linejoin="round"/>
  <path d="M48 66V38" stroke="#C9A96E" stroke-width="4" stroke-linecap="round"/>
  <path d="M48 48C42 44 39 39 39 32" stroke="#C9A96E" stroke-width="4" stroke-linecap="round"/>
  <path d="M48 55C55 51 58 45 58 38" stroke="#C9A96E" stroke-width="4" stroke-linecap="round"/>
</svg>
